<svg width="48" height="48" viewBox="0 0 48 48" fill="none" xmlns="http://www.w3.org/2000/svg">
<rect width="48" height="48" rx="24" fill="url(#paint0_linear_6711_12167)"/>
<path fill-rule="evenodd" clip-rule="evenodd" d="M15 17C15 15.8954 15.9082 15 17.0284 15H31.2274C32.3477 15 33.2558 15.8954 33.2558 17V31C33.2558 32.1046 32.3477 33 31.2274 33H17.0284C15.9082 33 15 32.1046 15 31V17ZM17.0284 17H19.0568V18C19.0568 19.6568 20.4191 21 22.0995 21H26.1563C27.8368 21 29.1989 19.6568 29.1989 18V17H31.2274V31H17.0284V17ZM21.0853 18V17H27.1705V18C27.1705 18.5523 26.7165 19 26.1563 19H22.0995C21.5393 19 21.0853 18.5523 21.0853 18ZM20.071 23C19.5109 23 19.0568 23.4477 19.0568 24C19.0568 24.5523 19.5109 25 20.071 25H28.1437C28.7038 25 29.1579 24.5523 29.1579 24C29.1579 23.4477 28.7038 23 28.1437 23H20.071ZM20.1122 27.0665C19.552 27.0665 19.0979 27.5142 19.0979 28.0665C19.0979 28.6188 19.552 29.0665 20.1122 29.0665H28.1847C28.7449 29.0665 29.1989 28.6188 29.1989 28.0665C29.1989 27.5142 28.7449 27.0665 28.1847 27.0665H20.1122Z" fill="white"/>
<defs>
<linearGradient id="paint0_linear_6711_12167" x1="24" y1="0" x2="24" y2="48" gradientUnits="userSpaceOnUse">
<stop stop-color="#20AF62"/>
<stop offset="1" stop-color="#17E783"/>
</linearGradient>
</defs>
</svg>
