<svg width="24" height="25" viewBox="0 0 24 25" fill="none" xmlns="http://www.w3.org/2000/svg">
<g clip-path="url(#clip0_6910_28741)">
<path d="M7.29101 21.0564L3.15061 21.9767C2.61471 22.0958 2.13664 21.6177 2.25575 21.0818L3.17601 16.9414C2.40154 15.4928 1.99754 13.8751 2.00001 12.2324C2.00001 6.70942 6.47701 2.23242 12 2.23242C17.523 2.23242 22 6.70942 22 12.2324C22 17.7554 17.523 22.2324 12 22.2324C10.3574 22.2349 8.73963 21.8309 7.29101 21.0564ZM7.58101 18.9434L8.23401 19.2934C9.39256 19.9126 10.6864 20.2352 12 20.2324C13.5823 20.2324 15.129 19.7632 16.4446 18.8842C17.7602 18.0051 18.7855 16.7557 19.391 15.2939C19.9965 13.8321 20.155 12.2235 19.8463 10.6717C19.5376 9.11985 18.7757 7.69439 17.6569 6.57557C16.538 5.45675 15.1126 4.69482 13.5607 4.38614C12.0089 4.07746 10.4004 4.23588 8.93854 4.84139C7.47674 5.44689 6.22731 6.47227 5.34825 7.78786C4.4692 9.10345 4.00001 10.6502 4.00001 12.2324C4.00001 13.5664 4.32501 14.8504 4.94001 15.9984L5.28901 16.6514L4.7363 19.1382C4.68866 19.3525 4.87989 19.5438 5.09425 19.4961L7.58101 18.9434Z" fill="white"/>
</g>
<defs>
<clipPath id="clip0_6910_28741">
<rect width="24" height="24" fill="white" transform="translate(0 0.232422)"/>
</clipPath>
</defs>
</svg>
