<svg width="25" height="25" viewBox="0 0 25 25" fill="none" xmlns="http://www.w3.org/2000/svg">
<path d="M9 16.0562H9.01M9 5.05615H7C6.46957 5.05615 5.96086 5.26687 5.58579 5.64194C5.21071 6.01701 5 6.52572 5 7.05615V19.0562C5 19.5866 5.21071 20.0953 5.58579 20.4704C5.96086 20.8454 6.46957 21.0562 7 21.0562H17C17.5304 21.0562 18.0391 20.8454 18.4142 20.4704C18.7893 20.0953 19 19.5866 19 19.0562V7.05615C19 6.52572 18.7893 6.01701 18.4142 5.64194C18.0391 5.26687 17.5304 5.05615 17 5.05615H15H9ZM9 5.05615C9 5.58659 9.21071 6.09529 9.58579 6.47037C9.96086 6.84544 10.4696 7.05615 11 7.05615H13C13.5304 7.05615 14.0391 6.84544 14.4142 6.47037C14.7893 6.09529 15 5.58659 15 5.05615H9ZM9 5.05615C9 4.52572 9.21071 4.01701 9.58579 3.64194C9.96086 3.26687 10.4696 3.05615 11 3.05615H13C13.5304 3.05615 14.0391 3.26687 14.4142 3.64194C14.7893 4.01701 15 4.52572 15 5.05615H9ZM12 12.0562H15H12ZM12 16.0562H15H12ZM9 12.0562H9.01H9Z" stroke="white" stroke-width="2" stroke-linecap="round" stroke-linejoin="round"/>
</svg>
