<svg width="24" height="25" viewBox="0 0 24 25" fill="none" xmlns="http://www.w3.org/2000/svg">
<g clip-path="url(#clip0_6910_28735)">
<path d="M6.5 12.2783C5.90905 12.2783 5.32389 12.1619 4.77792 11.9358C4.23196 11.7096 3.73588 11.3782 3.31802 10.9603C2.90016 10.5424 2.56869 10.0464 2.34254 9.5004C2.1164 8.95443 2 8.36927 2 7.77832C2 7.18737 2.1164 6.60221 2.34254 6.05624C2.56869 5.51028 2.90016 5.0142 3.31802 4.59634C3.73588 4.17848 4.23196 3.84701 4.77792 3.62086C5.32389 3.39472 5.90905 3.27832 6.5 3.27832C7.69347 3.27832 8.83807 3.75243 9.68198 4.59634C10.5259 5.44025 11 6.58485 11 7.77832C11 8.97179 10.5259 10.1164 9.68198 10.9603C8.83807 11.8042 7.69347 12.2783 6.5 12.2783ZM7 22.2783C5.80653 22.2783 4.66193 21.8042 3.81802 20.9603C2.97411 20.1164 2.5 18.9718 2.5 17.7783C2.5 16.5848 2.97411 15.4403 3.81802 14.5963C4.66193 13.7524 5.80653 13.2783 7 13.2783C8.19347 13.2783 9.33807 13.7524 10.182 14.5963C11.0259 15.4403 11.5 16.5848 11.5 17.7783C11.5 18.9718 11.0259 20.1164 10.182 20.9603C9.33807 21.8042 8.19347 22.2783 7 22.2783ZM17 12.2783C16.4091 12.2783 15.8239 12.1619 15.2779 11.9358C14.732 11.7096 14.2359 11.3782 13.818 10.9603C13.4002 10.5424 13.0687 10.0464 12.8425 9.5004C12.6164 8.95443 12.5 8.36927 12.5 7.77832C12.5 7.18737 12.6164 6.60221 12.8425 6.05624C13.0687 5.51028 13.4002 5.0142 13.818 4.59634C14.2359 4.17848 14.732 3.84701 15.2779 3.62086C15.8239 3.39472 16.4091 3.27832 17 3.27832C18.1935 3.27832 19.3381 3.75243 20.182 4.59634C21.0259 5.44025 21.5 6.58485 21.5 7.77832C21.5 8.97179 21.0259 10.1164 20.182 10.9603C19.3381 11.8042 18.1935 12.2783 17 12.2783ZM17 22.2783C15.8065 22.2783 14.6619 21.8042 13.818 20.9603C12.9741 20.1164 12.5 18.9718 12.5 17.7783C12.5 16.5848 12.9741 15.4403 13.818 14.5963C14.6619 13.7524 15.8065 13.2783 17 13.2783C18.1935 13.2783 19.3381 13.7524 20.182 14.5963C21.0259 15.4403 21.5 16.5848 21.5 17.7783C21.5 18.9718 21.0259 20.1164 20.182 20.9603C19.3381 21.8042 18.1935 22.2783 17 22.2783ZM6.5 10.2783C7.16304 10.2783 7.79893 10.0149 8.26777 9.54609C8.73661 9.07725 9 8.44136 9 7.77832C9 7.11528 8.73661 6.47939 8.26777 6.01055C7.79893 5.54171 7.16304 5.27832 6.5 5.27832C5.83696 5.27832 5.20107 5.54171 4.73223 6.01055C4.26339 6.47939 4 7.11528 4 7.77832C4 8.44136 4.26339 9.07725 4.73223 9.54609C5.20107 10.0149 5.83696 10.2783 6.5 10.2783ZM7 20.2783C7.66304 20.2783 8.29893 20.0149 8.76777 19.5461C9.23661 19.0772 9.5 18.4414 9.5 17.7783C9.5 17.1153 9.23661 16.4794 8.76777 16.0106C8.29893 15.5417 7.66304 15.2783 7 15.2783C6.33696 15.2783 5.70107 15.5417 5.23223 16.0106C4.76339 16.4794 4.5 17.1153 4.5 17.7783C4.5 18.4414 4.76339 19.0772 5.23223 19.5461C5.70107 20.0149 6.33696 20.2783 7 20.2783ZM17 10.2783C17.663 10.2783 18.2989 10.0149 18.7678 9.54609C19.2366 9.07725 19.5 8.44136 19.5 7.77832C19.5 7.11528 19.2366 6.47939 18.7678 6.01055C18.2989 5.54171 17.663 5.27832 17 5.27832C16.337 5.27832 15.7011 5.54171 15.2322 6.01055C14.7634 6.47939 14.5 7.11528 14.5 7.77832C14.5 8.44136 14.7634 9.07725 15.2322 9.54609C15.7011 10.0149 16.337 10.2783 17 10.2783ZM17 20.2783C17.663 20.2783 18.2989 20.0149 18.7678 19.5461C19.2366 19.0772 19.5 18.4414 19.5 17.7783C19.5 17.1153 19.2366 16.4794 18.7678 16.0106C18.2989 15.5417 17.663 15.2783 17 15.2783C16.337 15.2783 15.7011 15.5417 15.2322 16.0106C14.7634 16.4794 14.5 17.1153 14.5 17.7783C14.5 18.4414 14.7634 19.0772 15.2322 19.5461C15.7011 20.0149 16.337 20.2783 17 20.2783Z" fill="white"/>
</g>
<defs>
<clipPath id="clip0_6910_28735">
<rect width="24" height="24" fill="white" transform="translate(0 0.77832)"/>
</clipPath>
</defs>
</svg>
